<?xml version="1.0" encoding="UTF-8"?>
<svg xmlns="http://www.w3.org/2000/svg" xmlns:xlink="http://www.w3.org/1999/xlink" width="27pt" height="24pt" viewBox="0 0 27 24" version="1.1">
<g id="surface1">
<path style=" stroke:none;fill-rule:nonzero;fill:rgb(0%,0%,0%);fill-opacity:1;" d="M 10.890625 0.101562 C 10.269531 0.199219 9.269531 0.703125 8.703125 1.195312 C 7.882812 1.90625 7.515625 2.917969 7.882812 3.445312 C 7.964844 3.566406 8.011719 3.675781 8 3.683594 C 7.894531 3.773438 6.472656 4.484375 6.453125 4.457031 C 6.445312 4.441406 6.289062 4.121094 6.121094 3.746094 C 5.722656 2.898438 5.488281 2.734375 4.671875 2.734375 C 3.601562 2.734375 2.59375 3.164062 1.675781 4.019531 C 0.730469 4.898438 0.601562 5.597656 1.207031 6.621094 L 1.539062 7.175781 L 1.171875 7.542969 C 0.78125 7.941406 0.757812 8.0625 0.800781 9.164062 C 0.820312 9.59375 0.773438 9.820312 0.59375 10.210938 C 0.207031 11.078125 0.0820312 11.726562 0.0703125 12.949219 C 0.0703125 13.585938 0.117188 14.324219 0.1875 14.636719 C 0.253906 14.945312 0.601562 15.773438 0.988281 16.550781 C 1.367188 17.296875 2.285156 19.101562 3.015625 20.5625 C 3.742188 22.019531 4.429688 23.308594 4.535156 23.417969 C 4.878906 23.808594 5.183594 23.910156 6.109375 23.910156 C 7.433594 23.917969 8.621094 23.507812 10.078125 22.550781 C 11.0625 21.902344 11.890625 21.035156 12.238281 20.289062 C 12.601562 19.523438 12.589844 19.167969 12.167969 18.363281 L 11.824219 17.71875 L 12.214844 17.269531 C 13.285156 16.039062 14.039062 15.019531 14.140625 14.664062 C 14.191406 14.453125 14.21875 14.0625 14.203125 13.777344 C 14.164062 13.074219 14.371094 13.039062 14.902344 13.660156 C 15.480469 14.324219 15.859375 14.453125 17.136719 14.378906 L 18.152344 14.324219 L 18.675781 14.863281 C 19.386719 15.582031 19.746094 15.71875 20.773438 15.65625 C 23.75 15.464844 27.441406 12.210938 26.917969 10.230469 C 26.839844 9.9375 26.503906 9.566406 25.171875 8.226562 C 22.320312 5.363281 19.683594 3.089844 18.496094 2.472656 C 17.414062 1.898438 16.199219 1.769531 14.617188 2.0625 C 14.175781 2.144531 13.761719 2.214844 13.6875 2.226562 C 13.609375 2.226562 13.417969 1.90625 13.183594 1.375 C 12.796875 0.484375 12.464844 0.0898438 12.113281 0.0898438 C 11.996094 0.0898438 11.789062 0.0742188 11.644531 0.0546875 C 11.503906 0.0351562 11.160156 0.0546875 10.890625 0.101562 Z M 12.375 0.472656 C 12.5 0.59375 12.699219 0.882812 12.816406 1.140625 L 13.023438 1.597656 L 12.429688 1.605469 C 11.980469 1.613281 11.671875 1.679688 11.1875 1.886719 C 10.402344 2.226562 9.386719 2.898438 9.019531 3.328125 C 8.65625 3.738281 8.316406 3.71875 8.082031 3.273438 C 7.875 2.863281 7.984375 2.445312 8.449219 1.84375 C 9.394531 0.636719 11.65625 -0.144531 12.375 0.472656 Z M 13.039062 1.914062 C 13.132812 1.960938 13.230469 2.0625 13.257812 2.132812 C 13.292969 2.226562 12.949219 2.351562 11.773438 2.652344 C 10.925781 2.871094 10.144531 3.117188 10.027344 3.21875 C 9.871094 3.335938 9.808594 3.484375 9.808594 3.683594 C 9.808594 3.921875 9.757812 4.003906 9.574219 4.09375 C 9.378906 4.183594 9.324219 4.167969 9.179688 3.992188 C 9.027344 3.792969 9.027344 3.785156 9.199219 3.554688 C 10.007812 2.5 12.3125 1.515625 13.039062 1.914062 Z M 17.683594 2.390625 C 17.980469 2.488281 18.460938 2.71875 18.746094 2.890625 C 19.78125 3.519531 22.292969 5.707031 24.480469 7.878906 L 25.785156 9.171875 L 25.15625 9.183594 C 22.507812 9.199219 18.890625 11.917969 18.65625 14.078125 L 18.613281 14.472656 L 17.992188 13.796875 C 17.40625 13.15625 17.371094 13.09375 17.371094 12.683594 C 17.371094 11.953125 17.792969 11.226562 18.800781 10.210938 C 19.3125 9.703125 19.898438 9.21875 20.230469 9.027344 C 21.3125 8.417969 21.355469 8.378906 21.265625 8.289062 C 21.070312 8.089844 18.988281 8.679688 17.980469 9.226562 C 17.351562 9.566406 16.488281 10.339844 16.191406 10.816406 L 16.003906 11.125 L 15.785156 10.804688 C 15.667969 10.625 15.570312 10.457031 15.570312 10.429688 C 15.570312 10.320312 16.460938 9.4375 16.8125 9.191406 C 17.414062 8.773438 17.179688 8.671875 16.316406 8.980469 C 15.578125 9.246094 14.957031 9.355469 14.804688 9.238281 C 14.652344 9.117188 10.359375 3.519531 10.351562 3.429688 C 10.332031 3.273438 13.886719 2.390625 15.265625 2.199219 C 16.074219 2.089844 17.011719 2.160156 17.683594 2.390625 Z M 5.398438 3.101562 C 5.535156 3.171875 6.121094 4.148438 6.121094 4.304688 C 6.121094 4.320312 5.902344 4.320312 5.652344 4.304688 C 4.464844 4.230469 2.320312 5.445312 1.816406 6.472656 L 1.636719 6.847656 L 1.359375 6.382812 C 0.882812 5.589844 1.035156 4.941406 1.90625 4.148438 C 2.960938 3.191406 4.636719 2.691406 5.398438 3.101562 Z M 12.238281 6.382812 C 14.734375 9.621094 14.6875 9.574219 15.175781 9.574219 C 15.390625 9.574219 15.660156 9.539062 15.785156 9.484375 C 16.101562 9.363281 16.082031 9.4375 15.703125 9.855469 C 15.535156 10.058594 15.390625 10.25 15.390625 10.304688 C 15.390625 10.347656 15.335938 10.367188 15.273438 10.339844 C 15.199219 10.3125 15.15625 10.203125 15.15625 10.09375 C 15.164062 9.949219 15.058594 9.839844 14.714844 9.664062 C 14.320312 9.464844 14.039062 9.144531 12.175781 6.675781 C 11.023438 5.152344 10.078125 3.847656 10.078125 3.765625 C 10.078125 3.566406 9.953125 3.410156 12.238281 6.382812 Z M 8.8125 4.074219 C 9.125 4.359375 11.96875 8.152344 12.03125 8.378906 C 12.058594 8.507812 12.03125 8.699219 11.960938 8.828125 C 11.890625 8.945312 10.59375 9.820312 8.910156 10.878906 L 5.984375 12.71875 L 4.03125 9.992188 C 2.953125 8.488281 2.097656 7.230469 2.140625 7.195312 C 2.179688 7.15625 3.519531 6.402344 5.128906 5.527344 C 8.171875 3.855469 8.425781 3.757812 8.8125 4.074219 Z M 11.878906 6.675781 C 14.15625 9.730469 14.230469 9.820312 14.707031 9.957031 L 15.074219 10.066406 L 14.625 10.121094 C 14.371094 10.15625 14.039062 10.257812 13.878906 10.339844 C 13.519531 10.53125 12.960938 11.089844 12.960938 11.261719 C 12.960938 11.335938 12.925781 11.398438 12.871094 11.398438 C 12.753906 11.398438 12.753906 11.070312 12.878906 10.832031 C 13.113281 10.386719 12.664062 10.578125 11.167969 11.554688 C 10.324219 12.109375 10.277344 12.335938 11.070312 12.027344 C 11.339844 11.917969 11.851562 11.816406 12.195312 11.789062 L 12.824219 11.746094 L 13.050781 12.226562 C 13.175781 12.492188 13.417969 12.847656 13.589844 13.03125 C 13.859375 13.304688 13.90625 13.414062 13.933594 13.898438 C 13.960938 14.261719 13.921875 14.5625 13.832031 14.773438 L 13.699219 15.089844 L 13.6875 14.589844 C 13.679688 14.007812 13.464844 13.585938 13.03125 13.304688 C 12.5625 13.003906 11.617188 13.09375 10.773438 13.523438 C 9.765625 14.035156 6.128906 16.851562 6.121094 17.117188 C 6.121094 17.269531 6.085938 17.28125 6.875 16.90625 C 8.378906 16.210938 10.042969 16.019531 10.691406 16.484375 C 10.90625 16.652344 11.789062 18 11.789062 18.183594 C 11.789062 18.210938 11.644531 18.164062 11.476562 18.089844 C 11.042969 17.910156 10.054688 17.925781 9.253906 18.136719 C 8.550781 18.320312 7.183594 18.964844 6.480469 19.449219 C 5.488281 20.132812 4.5625 21.226562 4.320312 22.011719 L 4.210938 22.359375 L 3.25 20.460938 C 2.71875 19.414062 1.890625 17.789062 1.421875 16.859375 C 0.367188 14.789062 0.226562 14.253906 0.296875 12.730469 C 0.324219 12.0625 0.414062 11.488281 0.550781 11.0625 L 0.746094 10.394531 L 0.890625 10.832031 C 1.0625 11.335938 1.144531 11.453125 2.609375 13.402344 C 3.996094 15.246094 4.230469 15.5 4.519531 15.5 C 4.660156 15.5 5.023438 15.273438 5.515625 14.871094 C 5.929688 14.535156 6.507812 14.117188 6.796875 13.953125 C 8 13.257812 12.121094 10.550781 12.3125 10.339844 C 12.484375 10.140625 12.511719 10.011719 12.511719 9.382812 C 12.511719 8.835938 12.464844 8.570312 12.339844 8.316406 C 12.238281 8.132812 11.546875 7.183594 10.800781 6.210938 C 10.054688 5.242188 9.449219 4.441406 9.46875 4.421875 C 9.574219 4.339844 9.871094 4.203125 9.945312 4.203125 C 10 4.203125 10.863281 5.316406 11.878906 6.675781 Z M 5.984375 4.550781 C 6.136719 4.613281 6.039062 4.6875 5.445312 4.996094 C 4.445312 5.507812 2.222656 6.738281 2.113281 6.847656 C 1.980469 6.984375 1.90625 6.9375 1.953125 6.757812 C 2.203125 5.761719 5.074219 4.195312 5.984375 4.550781 Z M 3.769531 10.074219 L 5.671875 12.710938 L 5.382812 12.867188 C 5.21875 12.949219 4.96875 13.128906 4.824219 13.265625 C 4.679688 13.394531 4.535156 13.476562 4.5 13.429688 C 4.445312 13.367188 2.574219 10.886719 1.503906 9.457031 C 1.078125 8.890625 0.953125 8.460938 1.117188 8.070312 C 1.234375 7.789062 1.675781 7.359375 1.808594 7.402344 C 1.84375 7.421875 2.726562 8.617188 3.769531 10.074219 Z M 19.980469 8.828125 C 19.980469 8.863281 19.855469 8.972656 19.699219 9.0625 C 19.25 9.328125 18.1875 10.386719 17.773438 10.988281 C 17.371094 11.570312 17.101562 12.238281 17.101562 12.675781 C 17.101562 13.046875 17.226562 13.332031 17.539062 13.707031 L 17.820312 14.023438 L 17.539062 14.078125 C 17.386719 14.105469 17.0625 14.132812 16.828125 14.132812 C 16.433594 14.132812 16.390625 14.105469 16.164062 13.777344 C 16.027344 13.585938 15.867188 13.238281 15.796875 13.019531 C 15.6875 12.648438 15.695312 12.609375 15.894531 12.355469 C 16.039062 12.171875 16.109375 11.964844 16.109375 11.726562 C 16.109375 11.089844 17.082031 10.003906 18.136719 9.457031 C 18.539062 9.246094 19.691406 8.808594 19.960938 8.753906 C 19.972656 8.753906 19.980469 8.789062 19.980469 8.828125 Z M 12.160156 10.101562 C 12.078125 10.257812 8.152344 12.839844 6.667969 13.722656 C 6.363281 13.90625 5.824219 14.296875 5.464844 14.589844 C 5.03125 14.9375 4.796875 15.082031 4.753906 15.007812 C 4.714844 14.953125 4.679688 14.652344 4.679688 14.335938 C 4.679688 13.796875 4.699219 13.742188 4.960938 13.515625 C 5.328125 13.195312 5.761719 12.957031 5.976562 12.949219 C 6.238281 12.949219 11.933594 9.363281 12.097656 9.101562 C 12.175781 8.953125 12.195312 9.007812 12.222656 9.429688 C 12.238281 9.710938 12.214844 10.011719 12.160156 10.101562 Z M 2.90625 11.726562 L 4.5 13.84375 L 4.5 14.488281 C 4.5 14.84375 4.464844 15.136719 4.417969 15.136719 C 4.3125 15.136719 3.988281 14.746094 2.746094 13.09375 C 1.132812 10.953125 1.054688 10.816406 1.015625 9.910156 C 0.980469 9.171875 0.988281 9.164062 1.144531 9.390625 C 1.234375 9.511719 2.023438 10.570312 2.90625 11.726562 Z M 25.847656 9.484375 C 26.035156 9.539062 26.296875 9.71875 26.460938 9.910156 C 26.722656 10.210938 26.746094 10.285156 26.710938 10.714844 C 26.605469 12.046875 25.117188 13.667969 23.085938 14.707031 C 21.347656 15.59375 19.746094 15.683594 19.125 14.9375 C 18.898438 14.671875 18.882812 14.589844 18.925781 14.132812 C 18.988281 13.429688 19.332031 12.792969 20.078125 12 C 21.753906 10.210938 24.371094 9.074219 25.847656 9.484375 Z M 15.433594 10.777344 L 15.667969 10.988281 L 15.238281 10.996094 C 14.679688 11.007812 13.921875 11.40625 13.589844 11.871094 C 13.339844 12.226562 13.230469 12.238281 13.230469 11.910156 C 13.230469 11.351562 14.203125 10.605469 14.957031 10.585938 C 15.09375 10.578125 15.308594 10.667969 15.433594 10.777344 Z M 12.582031 11.335938 C 12.609375 11.460938 12.535156 11.488281 12.25 11.488281 C 11.816406 11.488281 11.789062 11.453125 12.132812 11.269531 C 12.421875 11.105469 12.546875 11.125 12.582031 11.335938 Z M 15.769531 11.371094 C 15.859375 11.453125 15.929688 11.609375 15.929688 11.726562 C 15.929688 12.019531 15.460938 12.527344 14.992188 12.757812 C 14.570312 12.964844 13.867188 13.011719 13.699219 12.839844 C 13.417969 12.554688 13.660156 11.992188 14.203125 11.652344 C 14.894531 11.214844 15.480469 11.105469 15.769531 11.371094 Z M 15.570312 13.011719 C 15.570312 13.277344 15.976562 14.042969 16.109375 14.042969 C 16.164062 14.042969 16.199219 14.078125 16.199219 14.125 C 16.199219 14.296875 15.460938 13.90625 15.164062 13.570312 C 14.992188 13.375 14.851562 13.195312 14.851562 13.148438 C 14.851562 13.09375 15.34375 12.800781 15.507812 12.773438 C 15.542969 12.773438 15.570312 12.875 15.570312 13.011719 Z M 12.816406 13.53125 C 13.195312 13.6875 13.410156 13.996094 13.410156 14.371094 C 13.410156 14.527344 13.453125 14.78125 13.507812 14.9375 C 13.597656 15.210938 13.582031 15.253906 12.96875 15.976562 C 11.890625 17.269531 11.71875 17.460938 11.683594 17.417969 C 11.664062 17.390625 11.492188 17.132812 11.304688 16.84375 C 10.828125 16.085938 10.429688 15.921875 9.277344 15.984375 C 8.738281 16.011719 8.21875 16.101562 7.882812 16.222656 C 7.585938 16.332031 7.335938 16.394531 7.316406 16.375 C 7.273438 16.339844 9.78125 14.433594 10.449219 14.015625 C 11.277344 13.476562 12.238281 13.285156 12.816406 13.53125 Z M 11.492188 18.335938 C 11.925781 18.472656 12.238281 18.902344 12.238281 19.339844 C 12.238281 19.742188 11.914062 20.453125 11.503906 20.992188 C 10.71875 22.003906 8.613281 23.261719 7.164062 23.570312 C 6.335938 23.761719 5.347656 23.71875 4.996094 23.488281 C 3.664062 22.605469 5.085938 20.363281 7.882812 18.9375 C 9.242188 18.246094 10.53125 18.035156 11.492188 18.335938 Z M 11.492188 18.335938 "/>
<path style=" stroke:none;fill-rule:nonzero;fill:rgb(0%,0%,0%);fill-opacity:1;" d="M 19.078125 3.621094 C 19.078125 3.683594 19.699219 4.386719 20.464844 5.179688 L 21.851562 6.621094 L 22.222656 6.582031 C 22.429688 6.566406 22.589844 6.5 22.589844 6.457031 C 22.589844 6.402344 22.453125 6.390625 22.246094 6.429688 C 21.90625 6.484375 21.90625 6.484375 20.824219 5.363281 C 20.222656 4.742188 19.59375 4.074219 19.414062 3.875 C 19.234375 3.675781 19.078125 3.554688 19.078125 3.621094 Z M 19.078125 3.621094 "/>
<path style=" stroke:none;fill-rule:nonzero;fill:rgb(0%,0%,0%);fill-opacity:1;" d="M 17.792969 3.792969 C 17.757812 3.828125 17.992188 4.128906 18.304688 4.457031 C 18.613281 4.789062 19.160156 5.390625 19.53125 5.789062 C 19.890625 6.191406 20.257812 6.59375 20.347656 6.691406 C 20.476562 6.828125 20.574219 6.847656 20.914062 6.800781 C 21.148438 6.765625 21.3125 6.703125 21.285156 6.65625 C 21.257812 6.621094 21.085938 6.621094 20.90625 6.664062 C 20.582031 6.738281 20.546875 6.730469 20.25 6.402344 C 20.078125 6.199219 19.503906 5.570312 18.972656 4.996094 C 18.097656 4.046875 17.839844 3.710938 18.089844 3.875 C 18.136719 3.902344 18.253906 3.882812 18.332031 3.839844 C 18.46875 3.757812 18.433594 3.746094 18.171875 3.738281 C 17.992188 3.738281 17.820312 3.765625 17.792969 3.792969 Z M 17.792969 3.792969 "/>
<path style=" stroke:none;fill-rule:nonzero;fill:rgb(0%,0%,0%);fill-opacity:1;" d="M 16.632812 4.085938 C 16.496094 4.140625 16.722656 4.429688 17.839844 5.699219 C 18.585938 6.554688 19.222656 7.25 19.25 7.238281 C 19.519531 7.222656 19.980469 7.074219 19.980469 7.019531 C 19.980469 6.976562 19.835938 6.984375 19.65625 7.03125 C 19.484375 7.085938 19.304688 7.113281 19.269531 7.09375 C 19.234375 7.074219 18.65625 6.445312 17.992188 5.699219 C 17.335938 4.941406 16.75 4.3125 16.695312 4.292969 C 16.648438 4.277344 16.75 4.203125 16.921875 4.140625 C 17.191406 4.039062 17.199219 4.03125 17.011719 4.019531 C 16.882812 4.019531 16.714844 4.058594 16.632812 4.085938 Z M 16.632812 4.085938 "/>
<path style=" stroke:none;fill-rule:nonzero;fill:rgb(0%,0%,0%);fill-opacity:1;" d="M 15.488281 4.476562 C 15.21875 4.558594 15.199219 4.585938 15.316406 4.722656 C 15.390625 4.804688 15.984375 5.515625 16.648438 6.292969 C 17.308594 7.066406 17.863281 7.722656 17.882812 7.742188 C 17.902344 7.769531 18.097656 7.714844 18.34375 7.632812 C 18.691406 7.503906 18.710938 7.484375 18.449219 7.53125 C 18.277344 7.558594 18.089844 7.597656 18.046875 7.597656 C 17.9375 7.613281 15.480469 4.777344 15.480469 4.640625 C 15.480469 4.597656 15.578125 4.558594 15.703125 4.558594 C 15.832031 4.558594 15.929688 4.515625 15.929688 4.46875 C 15.929688 4.359375 15.894531 4.367188 15.488281 4.476562 Z M 15.488281 4.476562 "/>
<path style=" stroke:none;fill-rule:nonzero;fill:rgb(0%,0%,0%);fill-opacity:1;" d="M 14.292969 4.859375 C 14.101562 4.914062 13.949219 4.980469 13.949219 5.007812 C 13.949219 5.035156 14.542969 5.78125 15.273438 6.65625 C 16.109375 7.679688 16.640625 8.242188 16.738281 8.234375 C 16.992188 8.199219 17.398438 8.023438 17.34375 7.960938 C 17.308594 7.933594 17.164062 7.960938 17.019531 8.023438 C 16.867188 8.078125 16.714844 8.117188 16.660156 8.105469 C 16.613281 8.089844 16.027344 7.394531 15.355469 6.566406 L 14.121094 5.0625 L 14.398438 4.980469 C 14.542969 4.933594 14.671875 4.859375 14.671875 4.824219 C 14.671875 4.777344 14.660156 4.75 14.652344 4.75 C 14.632812 4.761719 14.472656 4.804688 14.292969 4.859375 Z M 14.292969 4.859375 "/>
<path style=" stroke:none;fill-rule:nonzero;fill:rgb(0%,0%,0%);fill-opacity:1;" d="M 12.941406 5.308594 C 12.796875 5.351562 12.691406 5.425781 12.691406 5.460938 C 12.691406 5.507812 15.03125 8.488281 15.265625 8.746094 C 15.316406 8.808594 16.109375 8.554688 16.109375 8.472656 C 16.109375 8.363281 16.101562 8.363281 15.703125 8.535156 C 15.515625 8.609375 15.335938 8.644531 15.300781 8.597656 C 14.894531 8.132812 12.859375 5.535156 12.886719 5.515625 C 12.90625 5.5 13.058594 5.425781 13.230469 5.351562 C 13.589844 5.1875 13.347656 5.152344 12.941406 5.308594 Z M 12.941406 5.308594 "/>
<path style=" stroke:none;fill-rule:nonzero;fill:rgb(0%,0%,0%);fill-opacity:1;" d="M 7.46875 4.570312 C 6.929688 4.789062 4.84375 6.054688 4.679688 6.265625 C 4.410156 6.609375 4.445312 7.167969 4.753906 7.667969 C 4.96875 8.007812 7.003906 10.824219 7.210938 11.070312 C 7.246094 11.117188 8.164062 10.585938 9.242188 9.894531 C 10.324219 9.199219 11.296875 8.582031 11.410156 8.507812 C 11.519531 8.445312 11.609375 8.351562 11.609375 8.316406 C 11.609375 8.125 8.964844 4.769531 8.703125 4.625 C 8.386719 4.449219 7.820312 4.429688 7.46875 4.570312 Z M 8.449219 4.796875 C 8.738281 4.90625 9 5.207031 9.910156 6.410156 C 10.519531 7.222656 11.035156 7.90625 11.050781 7.941406 C 11.070312 7.980469 10.972656 7.996094 10.84375 7.996094 C 10.621094 7.996094 10.222656 8.214844 8.488281 9.292969 C 7.585938 9.847656 7.289062 10.175781 7.289062 10.625 C 7.289062 10.851562 4.878906 7.484375 4.769531 7.121094 C 4.726562 6.949219 4.699219 6.792969 4.714844 6.773438 C 4.734375 6.757812 5.246094 7.449219 5.851562 8.316406 C 7.171875 10.195312 7.082031 10.09375 7.199219 9.976562 C 7.261719 9.910156 6.894531 9.335938 6.121094 8.253906 C 5.371094 7.210938 4.949219 6.546875 4.96875 6.429688 C 5.011719 6.144531 7.082031 4.960938 8.074219 4.660156 C 8.089844 4.652344 8.253906 4.714844 8.449219 4.796875 Z M 11.25 8.28125 C 11.25 8.324219 11.152344 8.40625 11.023438 8.460938 C 10.898438 8.515625 10.089844 9.027344 9.226562 9.582031 C 8.351562 10.140625 7.621094 10.578125 7.597656 10.558594 C 7.570312 10.53125 7.597656 10.414062 7.648438 10.292969 C 7.730469 10.113281 8.28125 9.730469 9.523438 8.980469 C 9.601562 8.925781 9.871094 8.773438 10.105469 8.625 C 10.476562 8.40625 10.855469 8.261719 11.1875 8.214844 C 11.222656 8.207031 11.25 8.242188 11.25 8.28125 Z M 11.25 8.28125 "/>
<path style=" stroke:none;fill-rule:nonzero;fill:rgb(0%,0%,0%);fill-opacity:1;" d="M 3.347656 7.496094 C 3.148438 7.695312 3.238281 8.050781 3.617188 8.5625 C 4.050781 9.144531 4.113281 9.210938 4.375 9.210938 C 4.582031 9.210938 4.859375 8.945312 4.859375 8.746094 C 4.851562 8.671875 4.652344 8.34375 4.402344 7.996094 C 4.039062 7.496094 3.914062 7.386719 3.707031 7.386719 C 3.574219 7.386719 3.410156 7.429688 3.347656 7.496094 Z M 4.265625 8.015625 C 4.707031 8.597656 4.796875 8.980469 4.507812 9.074219 C 4.246094 9.15625 4.121094 9.0625 3.71875 8.488281 C 3.3125 7.925781 3.257812 7.769531 3.4375 7.585938 C 3.644531 7.375 3.859375 7.484375 4.265625 8.015625 Z M 4.265625 8.015625 "/>
<path style=" stroke:none;fill-rule:nonzero;fill:rgb(0%,0%,0%);fill-opacity:1;" d="M 4.960938 9.65625 C 4.679688 9.9375 4.726562 10.09375 5.21875 10.777344 C 5.5625 11.253906 5.722656 11.398438 5.886719 11.398438 C 6.15625 11.398438 6.390625 11.179688 6.390625 10.925781 C 6.390625 10.742188 5.605469 9.574219 5.480469 9.574219 C 5.445312 9.574219 5.355469 9.546875 5.28125 9.519531 C 5.203125 9.492188 5.058594 9.554688 4.960938 9.65625 Z M 5.878906 10.25 C 6.34375 10.886719 6.363281 10.953125 6.15625 11.160156 C 5.921875 11.398438 5.785156 11.335938 5.371094 10.777344 C 4.914062 10.167969 4.859375 10.039062 4.96875 9.820312 C 5.128906 9.5 5.4375 9.636719 5.878906 10.25 Z M 5.878906 10.25 "/>
<path style=" stroke:none;fill-rule:nonzero;fill:rgb(0%,0%,0%);fill-opacity:1;" d="M 23.542969 10.257812 C 21.347656 11.042969 19.1875 13.320312 19.699219 14.308594 C 20.269531 15.363281 23.011719 14.507812 24.804688 12.71875 C 25.894531 11.625 26.207031 10.742188 25.6875 10.257812 C 25.480469 10.058594 25.363281 10.03125 24.804688 10.03125 C 24.363281 10.03125 23.976562 10.101562 23.542969 10.257812 Z M 24.839844 10.347656 C 24.839844 10.46875 24.523438 11.007812 24.308594 11.28125 C 23.453125 12.328125 21.238281 13.585938 20.230469 13.585938 C 19.917969 13.585938 19.917969 13.484375 20.25 12.992188 C 20.871094 12.082031 22.390625 10.980469 23.625 10.558594 C 24.289062 10.320312 24.839844 10.230469 24.839844 10.347656 Z M 25.425781 10.359375 C 25.9375 10.558594 25.640625 11.5 24.777344 12.410156 C 23.695312 13.558594 21.90625 14.5 20.808594 14.5 C 20.230469 14.5 19.890625 14.324219 19.890625 14.035156 C 19.890625 13.886719 19.953125 13.859375 20.277344 13.859375 C 21.726562 13.851562 24.605469 11.882812 25.027344 10.597656 C 25.128906 10.292969 25.171875 10.265625 25.425781 10.359375 Z M 25.425781 10.359375 "/>
<path style=" stroke:none;fill-rule:nonzero;fill:rgb(0%,0%,0%);fill-opacity:1;" d="M 9.136719 18.949219 C 7.171875 19.542969 5.128906 21.246094 5.128906 22.285156 C 5.128906 22.886719 5.851562 23.214844 6.804688 23.070312 C 8.855469 22.742188 11.429688 20.808594 11.429688 19.605469 C 11.429688 19.066406 11.113281 18.839844 10.324219 18.8125 C 9.910156 18.792969 9.484375 18.847656 9.136719 18.949219 Z M 10.429688 19.25 C 10.070312 19.933594 8.792969 20.917969 7.632812 21.410156 C 6.667969 21.820312 5.578125 21.964844 5.578125 21.691406 C 5.578125 21.527344 6.578125 20.597656 7.191406 20.199219 C 8.171875 19.550781 9.433594 19.074219 10.195312 19.066406 C 10.519531 19.058594 10.53125 19.066406 10.429688 19.25 Z M 11.195312 19.722656 C 10.996094 20.453125 9.730469 21.65625 8.621094 22.183594 C 7.289062 22.824219 5.984375 23.035156 5.589844 22.667969 C 5.480469 22.570312 5.398438 22.402344 5.398438 22.304688 C 5.398438 22.128906 5.453125 22.113281 6.011719 22.101562 C 7.570312 22.074219 10.007812 20.625 10.675781 19.320312 L 10.828125 19.019531 L 11.042969 19.277344 C 11.1875 19.449219 11.242188 19.597656 11.195312 19.722656 Z M 11.195312 19.722656 "/>
</g>
</svg>
